<svg viewBox="-621 -305.5 1242 611" width="1242" height="611" style="background-color: rgb(255, 255, 255);" xmlns="http://www.w3.org/2000/svg"><path d="M-26.90343959198561,42.97856838325895L-45.913097634195466,39.042736898360765M-45.913097634195466,-122.51113259617796L-45.913097634195466,39.042736898360765M-45.913097634195466,39.042736898360765L-139.09985983990995,84.2053502657525M-26.90343959198561,-118.57530111127976L-26.90343959198561,42.97856838325895M-26.90343959198561,42.97856838325895L-120.0902017977001,88.1411817506507" style="fill:none;stroke:rgb(0,0,0);stroke-width:1;stroke-linecap:round"></path><path d="M-26.903439591985617,42.97856838325896L-45.913097634195466,39.04273689836076L-45.913097634195466,-122.51113259617796zM-26.903439591985617,-118.57530111127976L-26.903439591985617,42.97856838325896L-45.913097634195466,-122.51113259617796zM-139.09985983990995,84.2053502657525L-45.913097634195466,39.04273689836076L-26.903439591985617,42.97856838325896z" style="fill:rgb(238,238,238); fill-opacity: 0.13"></path><path d="M-26.90343959198561,-118.57530111127976L-45.913097634195466,-122.51113259617796M-45.913097634195466,-122.51113259617796L-139.09985983990995,-77.34851922878617M-26.90343959198561,-118.57530111127976L-120.0902017977001,-73.412687743888M88.09420598694868,66.78811578036287L69.08454794473883,62.85228429546469M69.08454794473883,-98.70158519907402L69.08454794473883,62.85228429546469M69.08454794473883,62.85228429546469L-24.10221426097566,108.01489766285643" style="fill:none;stroke:rgb(0,0,0);stroke-width:1;stroke-linecap:round"></path><path d="M-120.09020179770013,88.1411817506507L-26.903439591985617,42.97856838325896L-26.903439591985617,-118.57530111127976zM-45.913097634195466,-122.51113259617796L-45.913097634195466,39.04273689836076L-139.09985983990995,-77.3485192287862z" style="fill:rgb(238,238,238); fill-opacity: 0.13"></path><path d="M88.09420598694868,-94.76575371417582L88.09420598694868,66.78811578036287M88.09420598694868,66.78811578036287L-5.092556218765806,111.95072914775463" style="fill:none;stroke:rgb(0,0,0);stroke-width:1;stroke-linecap:round"></path><path d="M88.09420598694868,66.78811578036287L69.08454794473883,62.852284295464685L69.08454794473883,-98.70158519907402zM-120.09020179770013,88.1411817506507L-139.09985983990995,84.2053502657525L-26.903439591985617,42.97856838325896zM-120.09020179770013,-73.41268774388799L-26.903439591985617,-118.57530111127976L-45.913097634195466,-122.51113259617796zM-45.913097634195466,39.04273689836076L-139.09985983990995,84.2053502657525L-139.09985983990995,-77.3485192287862z" style="fill:rgb(238,238,238); fill-opacity: 0.13"></path><path d="M-88.86064219302598,8.396090622600983L-107.87030023523582,4.460259137702789M-107.87030023523582,-3.3088400757955387L-107.87030023523582,4.460259137702789M-107.87030023523582,4.460259137702789L-112.35163641880118,6.632121842631645M-88.86064219302598,0.6269914091026554L-107.87030023523582,-3.3088400757955387M-107.87030023523582,-3.3088400757955387L-112.35163641880118,-1.1369773708666813" style="fill:none;stroke:rgb(0,0,0);stroke-width:1;stroke-linecap:round"></path><path d="M88.09420598694868,-94.76575371417583L88.09420598694868,66.78811578036287L69.08454794473883,-98.70158519907402z" style="fill:rgb(238,238,238); fill-opacity: 0.13"></path><path d="M-107.87030023523582,-3.3088400757955365L-107.87030023523582,4.46025913770279L-112.35163641880118,-1.1369773708666815zM-88.86064219302597,8.396090622600985L-107.87030023523582,4.46025913770279L-107.87030023523582,-3.3088400757955365zM-107.87030023523582,4.46025913770279L-112.35163641880118,6.632121842631648L-112.35163641880118,-1.1369773708666815zM-112.35163641880118,6.632121842631648L-107.87030023523582,4.46025913770279L-88.86064219302597,8.396090622600985z" style="fill:rgb(0,170,255); fill-opacity: 0.4"></path><path d="M-112.35163641880118,-1.1369773708666813L-112.35163641880118,6.632121842631645M-112.35163641880118,6.632121842631645L-93.34197837659134,10.567953327529839" style="fill:none;stroke:rgb(0,0,0);stroke-width:1;stroke-linecap:round"></path><path d="M-24.102214260975657,108.01489766285643L69.08454794473883,62.852284295464685L88.09420598694868,66.78811578036287z" style="fill:rgb(238,238,238); fill-opacity: 0.13"></path><path d="M-112.35163641880118,-1.1369773708666813L-93.34197837659134,2.7988541140315117" style="fill:none;stroke:rgb(0,0,0);stroke-width:1;stroke-linecap:round"></path><path d="M-88.86064219302597,0.6269914091026573L-88.86064219302597,8.396090622600985L-107.87030023523582,-3.3088400757955365zM-112.35163641880118,-1.1369773708666815L-93.34197837659134,2.7988541140315126L-107.87030023523582,-3.3088400757955365z" style="fill:rgb(0,170,255); fill-opacity: 0.4"></path><path d="M-88.86064219302598,0.6269914091026554L-88.86064219302598,8.396090622600983M-88.86064219302598,8.396090622600983L-93.34197837659134,10.567953327529839M-88.86064026451733,0.6269920561531575L-88.86064026451733,8.396090343502689M-88.86064026451733,8.396090343502689L-93.34197644808268,10.567953048431544M-88.86064026451733,8.396090343502689L4.886677597994169,25.47118859994013" style="fill:none;stroke:rgb(0,0,0);stroke-width:1;stroke-linecap:round"></path><path d="M-112.35163641880118,-1.1369773708666815L-112.35163641880118,6.632121842631648L-93.34197837659134,2.7988541140315126zM-93.34197837659134,10.56795332752984L-112.35163641880118,6.632121842631648L-88.86064219302597,8.396090622600985zM-93.34197837659134,2.7988541140315126L-88.86064219302597,0.6269914091026573L-107.87030023523582,-3.3088400757955365z" style="fill:rgb(0,170,255); fill-opacity: 0.4"></path><path d="M88.09420598694868,-94.76575371417582L69.08454794473883,-98.70158519907402M69.08454794473883,-98.70158519907402L-24.10221426097566,-53.538971831682254M-88.86064219302598,0.6269914091026554L-93.34197837659134,2.7988541140315117M-88.86064026451733,0.6269920561531575L-93.34197644808268,2.798854761082015M-88.86064026451733,0.6269920561531575L4.886677597994169,25.47118859994013" style="fill:none;stroke:rgb(0,0,0);stroke-width:1;stroke-linecap:round"></path><path d="M-88.86064221914367,0.6269914036951479L-88.86064221914367,8.396090617193476L-93.34197840270902,10.567953322122332z" style="fill:rgb(255,6,6); fill-opacity: 0.4"></path><path d="M-93.34197837659134,10.56795332752984L-88.86064219302597,8.396090622600985L-88.86064219302597,0.6269914091026573zM-112.35163641880118,6.632121842631648L-93.34197837659134,10.56795332752984L-93.34197837659134,2.7988541140315126z" style="fill:rgb(0,170,255); fill-opacity: 0.4"></path><path d="M-88.86064221914367,0.6269914036951479L-93.34197840270902,10.567953322122332L-93.34197840270902,2.7988541086240035z" style="fill:rgb(255,6,6); fill-opacity: 0.4"></path><path d="M-93.34197837659134,2.7988541140315126L-93.34197837659134,10.56795332752984L-88.86064219302597,0.6269914091026573z" style="fill:rgb(0,170,255); fill-opacity: 0.4"></path><path d="M-93.34197837659134,2.7988541140315117L-93.34197837659134,10.567953327529839M-93.34197644808268,10.567953048431544L-93.34197644808268,2.798854761082015M-93.34197644808268,10.567953048431544L4.886677597994169,25.47118859994013M-93.34197644808268,2.798854761082015L4.886677597994169,25.47118859994013M-139.09985983990995,-77.34851922878617L-139.09985983990995,84.2053502657525M-139.09985983990995,84.2053502657525L-120.0902017977001,88.1411817506507M88.09420598694868,-94.76575371417582L-5.092556218765806,-49.60314034678407" style="fill:none;stroke:rgb(0,0,0);stroke-width:1;stroke-linecap:round"></path><path d="M-120.09020179770013,-73.41268774388799L-120.09020179770013,88.1411817506507L-26.903439591985617,-118.57530111127976z" style="fill:rgb(238,238,238); fill-opacity: 0.13"></path><path d="M-88.86064221914367,8.396090617193476L-88.86064221914367,0.6269914036951479L4.8866772780335,25.47118828592948z" style="fill:rgb(255,6,6); fill-opacity: 0.4"></path><path d="M-5.09255621876581,111.95072914775461L88.09420598694868,66.78811578036287L88.09420598694868,-94.76575371417583z" style="fill:rgb(238,238,238); fill-opacity: 0.13"></path><path d="M-93.34197840270902,10.567953322122332L-88.86064221914367,8.396090617193476L4.8866772780335,25.47118828592948z" style="fill:rgb(255,6,6); fill-opacity: 0.4"></path><path d="M-120.0902017977001,-73.412687743888L-120.0902017977001,88.1411817506507" style="fill:none;stroke:rgb(0,0,0);stroke-width:1;stroke-linecap:round"></path><path d="M-139.09985983990995,-77.3485192287862L-120.09020179770013,-73.41268774388799L-45.913097634195466,-122.51113259617796z" style="fill:rgb(238,238,238); fill-opacity: 0.13"></path><path d="M-88.86064221914367,0.6269914036951479L-93.34197840270902,2.7988541086240035L4.8866772780335,25.47118828592948z" style="fill:rgb(255,6,6); fill-opacity: 0.4"></path><path d="M60.805989122670454,-35.269615624936854L41.796331080460604,-39.20544710983505M41.796331080460604,-46.97454632333338L41.796331080460604,-39.20544710983505M41.796331080460604,-39.20544710983505L37.31499489689524,-37.03358440490619" style="fill:none;stroke:rgb(0,0,0);stroke-width:1;stroke-linecap:round"></path><path d="M-93.34197840270902,2.7988541086240035L-93.34197840270902,10.567953322122332L4.8866772780335,25.47118828592948z" style="fill:rgb(255,6,6); fill-opacity: 0.4"></path><path d="M60.805989122670454,-43.03871483843518L41.796331080460604,-46.97454632333338M41.796331080460604,-46.97454632333338L37.31499489689524,-44.80268361840452" style="fill:none;stroke:rgb(0,0,0);stroke-width:1;stroke-linecap:round"></path><path d="M69.08454794473883,-98.70158519907402L69.08454794473883,62.852284295464685L-24.102214260975657,-53.53897183168226z" style="fill:rgb(238,238,238); fill-opacity: 0.13"></path><path d="M41.7963310804606,-46.97454632333338L41.7963310804606,-39.205447109835056L37.314994896895236,-44.80268361840452zM60.805989122670454,-35.26961562493686L41.7963310804606,-39.205447109835056L41.7963310804606,-46.97454632333338zM41.7963310804606,-39.205447109835056L37.314994896895236,-37.03358440490619L37.314994896895236,-44.80268361840452zM37.314994896895236,-37.03358440490619L41.7963310804606,-39.205447109835056L60.805989122670454,-35.26961562493686z" style="fill:rgb(0,170,255); fill-opacity: 0.4"></path><path d="M37.31499489689524,-44.80268361840452L37.31499489689524,-37.03358440490619M37.31499489689524,-37.03358440490619L56.324652939105086,-33.097752920008M37.31499489689524,-44.80268361840452L56.324652939105086,-40.86685213350633" style="fill:none;stroke:rgb(0,0,0);stroke-width:1;stroke-linecap:round"></path><path d="M60.805989122670454,-43.03871483843518L60.805989122670454,-35.26961562493686L41.7963310804606,-46.97454632333338zM37.314994896895236,-44.80268361840452L56.324652939105086,-40.86685213350633L41.7963310804606,-46.97454632333338z" style="fill:rgb(0,170,255); fill-opacity: 0.4"></path><path d="M-139.09985983990995,84.2053502657525L-120.09020179770013,88.1411817506507L-120.09020179770013,-73.41268774388799z" style="fill:rgb(238,238,238); fill-opacity: 0.13"></path><path d="M60.80598881904017,-43.038716805948305L60.80598881904017,-35.26961759244999M60.80598881904017,-35.26961759244999L56.32465156704099,-33.09775436970872M60.80598881904017,-35.26961759244999L137.48881465260556,28.466204091073298M60.805989122670454,-43.03871483843518L60.805989122670454,-35.269615624936854M60.805989122670454,-35.269615624936854L56.324652939105086,-33.097752920008" style="fill:none;stroke:rgb(0,0,0);stroke-width:1;stroke-linecap:round"></path><path d="M37.314994896895236,-44.80268361840452L37.314994896895236,-37.03358440490619L56.324652939105086,-40.86685213350633zM56.324652939105086,-33.097752920008006L37.314994896895236,-37.03358440490619L60.805989122670454,-35.26961562493686zM56.324652939105086,-40.86685213350633L60.805989122670454,-43.03871483843518L41.7963310804606,-46.97454632333338z" style="fill:rgb(0,170,255); fill-opacity: 0.4"></path><path d="M60.80598881904017,-43.038716805948305L56.32465156704099,-40.86685358320704M60.80598881904017,-43.038716805948305L137.48881465260556,28.466204091073298M60.805989122670454,-43.03871483843518L56.324652939105086,-40.86685213350633" style="fill:none;stroke:rgb(0,0,0);stroke-width:1;stroke-linecap:round"></path><path d="M60.80598909655276,-43.03871484384269L60.80598909655276,-35.26961563034437L56.32465291298738,-33.09775292541551z" style="fill:rgb(255,6,6); fill-opacity: 0.4"></path><path d="M56.324652939105086,-33.097752920008006L60.805989122670454,-35.26961562493686L60.805989122670454,-43.03871483843518zM37.314994896895236,-37.03358440490619L56.324652939105086,-33.097752920008006L56.324652939105086,-40.86685213350633z" style="fill:rgb(0,170,255); fill-opacity: 0.4"></path><path d="M60.80598909655276,-43.03871484384269L56.32465291298738,-33.09775292541551L56.32465291298738,-40.866852138913835z" style="fill:rgb(255,6,6); fill-opacity: 0.4"></path><path d="M56.324652939105086,-40.86685213350633L56.324652939105086,-33.097752920008006L60.805989122670454,-43.03871483843518z" style="fill:rgb(0,170,255); fill-opacity: 0.4"></path><path d="M56.324652939105086,-40.86685213350633L56.324652939105086,-33.097752920008M56.32465156704099,-33.09775436970872L56.32465156704099,-40.86685358320704M56.32465156704099,-33.09775436970872L137.48881465260556,28.466204091073298" style="fill:none;stroke:rgb(0,0,0);stroke-width:1;stroke-linecap:round"></path><path d="M-5.09255621876581,111.95072914775461L-24.102214260975657,108.01489766285643L88.09420598694868,66.78811578036287z" style="fill:rgb(238,238,238); fill-opacity: 0.13"></path><path d="M56.32465156704099,-40.86685358320704L137.48881465260556,28.466204091073298" style="fill:none;stroke:rgb(0,0,0);stroke-width:1;stroke-linecap:round"></path><path d="M-139.09985983990995,-77.3485192287862L-139.09985983990995,84.2053502657525L-120.09020179770013,-73.41268774388799zM-5.09255621876581,-49.60314034678407L88.09420598694868,-94.76575371417583L69.08454794473883,-98.70158519907402zM69.08454794473883,62.852284295464685L-24.102214260975657,108.01489766285643L-24.102214260975657,-53.53897183168226z" style="fill:rgb(238,238,238); fill-opacity: 0.13"></path><path d="M60.80598909655276,-35.26961563034437L60.80598909655276,-43.03871484384269L137.4888124469336,28.466203634402643zM56.32465291298738,-33.09775292541551L60.80598909655276,-35.26961563034437L137.4888124469336,28.466203634402643z" style="fill:rgb(255,6,6); fill-opacity: 0.4"></path><path d="M-139.09985983990995,-77.34851922878617L-120.0902017977001,-73.412687743888" style="fill:none;stroke:rgb(0,0,0);stroke-width:1;stroke-linecap:round"></path><path d="M60.80598909655276,-43.03871484384269L56.32465291298738,-40.866852138913835L137.4888124469336,28.466203634402643zM56.32465291298738,-40.866852138913835L56.32465291298738,-33.09775292541551L137.4888124469336,28.466203634402643z" style="fill:rgb(255,6,6); fill-opacity: 0.4"></path><path d="M-24.10221426097566,-53.538971831682254L-24.10221426097566,108.01489766285643M-24.10221426097566,108.01489766285643L-5.092556218765806,111.95072914775463" style="fill:none;stroke:rgb(0,0,0);stroke-width:1;stroke-linecap:round"></path><path d="M-5.09255621876581,-49.60314034678407L-5.09255621876581,111.95072914775461L88.09420598694868,-94.76575371417583z" style="fill:rgb(238,238,238); fill-opacity: 0.13"></path><path d="M158.73913855480842,85.16739606267193L139.7294805125986,81.23156457777375M139.7294805125986,-26.47102002471232L139.7294805125986,81.23156457777375M139.7294805125986,81.23156457777375L135.24814432903324,83.4034272827026M-5.092556218765806,-49.60314034678407L-5.092556218765806,111.95072914775463" style="fill:none;stroke:rgb(0,0,0);stroke-width:1;stroke-linecap:round"></path><path d="M-24.102214260975657,-53.53897183168226L-5.09255621876581,-49.60314034678407L69.08454794473883,-98.70158519907402zM135.2481443290332,83.40342728270258L139.7294805125986,81.23156457777372L158.73913855480842,85.16739606267193z" style="fill:rgb(238,238,238); fill-opacity: 0.13"></path><path d="M135.24814432903324,-24.299157319783472L135.24814432903324,83.4034272827026M135.24814432903324,83.4034272827026L154.25780237124306,87.33925876760078M158.73913855480842,-22.535188539814133L158.73913855480842,85.16739606267193M158.73913855480842,85.16739606267193L154.25780237124306,87.33925876760078" style="fill:none;stroke:rgb(0,0,0);stroke-width:1;stroke-linecap:round"></path><path d="M154.25780237124306,87.33925876760078L135.2481443290332,83.40342728270258L158.73913855480842,85.16739606267193zM158.73913855480842,85.16739606267193L139.7294805125986,81.23156457777372L139.7294805125986,-26.471020024712324zM139.7294805125986,81.23156457777372L135.2481443290332,83.40342728270258L135.2481443290332,-24.299157319783475zM-24.102214260975657,108.01489766285643L-5.09255621876581,111.95072914775461L-5.09255621876581,-49.60314034678407z" style="fill:rgb(238,238,238); fill-opacity: 0.13"></path><path d="M154.25780237124306,-20.363325834885284L154.25780237124306,87.33925876760078" style="fill:none;stroke:rgb(0,0,0);stroke-width:1;stroke-linecap:round"></path><path d="M154.25780237124306,87.33925876760078L158.73913855480842,85.16739606267193L158.73913855480842,-22.53518853981413zM139.7294805125986,-26.471020024712324L139.7294805125986,81.23156457777372L135.2481443290332,-24.299157319783475zM135.2481443290332,83.40342728270258L154.25780237124306,87.33925876760078L154.25780237124306,-20.36332583488528zM-24.102214260975657,-53.53897183168226L-24.102214260975657,108.01489766285643L-5.09255621876581,-49.60314034678407zM158.73913855480842,-22.53518853981413L158.73913855480842,85.16739606267193L139.7294805125986,-26.471020024712324zM135.2481443290332,-24.299157319783475L135.2481443290332,83.40342728270258L154.25780237124306,-20.36332583488528z" style="fill:rgb(238,238,238); fill-opacity: 0.13"></path><path d="M158.73913855480842,-22.535188539814133L139.7294805125986,-26.47102002471232M139.7294805125986,-26.47102002471232L135.24814432903324,-24.299157319783472" style="fill:none;stroke:rgb(0,0,0);stroke-width:1;stroke-linecap:round"></path><path d="M154.25780237124306,-20.36332583488528L154.25780237124306,87.33925876760078L158.73913855480842,-22.53518853981413z" style="fill:rgb(238,238,238); fill-opacity: 0.13"></path><path d="M135.24814432903324,-24.299157319783472L154.25780237124306,-20.363325834885284" style="fill:none;stroke:rgb(0,0,0);stroke-width:1;stroke-linecap:round"></path><path d="M135.2481443290332,-24.299157319783475L154.25780237124306,-20.36332583488528L139.7294805125986,-26.471020024712324z" style="fill:rgb(238,238,238); fill-opacity: 0.13"></path><path d="M-24.10221426097566,-53.538971831682254L-5.092556218765806,-49.60314034678407" style="fill:none;stroke:rgb(0,0,0);stroke-width:1;stroke-linecap:round"></path><path d="M154.25780237124306,-20.36332583488528L158.73913855480842,-22.53518853981413L139.7294805125986,-26.471020024712324z" style="fill:rgb(238,238,238); fill-opacity: 0.13"></path><path d="M158.73913855480842,-22.535188539814133L154.25780237124306,-20.363325834885284M187.11682775215894,38.74137558844841L237.3962498225665,49.15141726241165M339.3038033001412,81.04853342022754L291.7796581946166,71.20895470798206M291.7796581946166,28.127920866987644L291.7796581946166,71.20895470798206M291.7796581946166,71.20895470798206L260.71740270146677,86.26315985419588M339.3038033001412,37.96749957923313L291.7796581946166,28.127920866987644M291.7796581946166,28.127920866987644L260.71740270146677,43.18212601320146" style="fill:none;stroke:rgb(0,0,0);stroke-width:1;stroke-linecap:round"></path><path d="M226.7412396091318,60.31728721554471L237.3962498225665,68.57416529615747L269.39224568555306,55.775989236751876z" style="fill:rgb(0,0,0)"></path><path d="M339.3038033001413,81.04853342022754L291.7796581946166,71.20895470798206L291.7796581946166,28.12792086698764z" style="fill:rgb(238,238,238); fill-opacity: 0.13"></path><path d="M243.9814080276899,30.24661174142166L230.81109161744294,36.62955599104729L269.39224568555306,55.775989236751876zM230.81109161744294,36.62955599104729L226.7412396091318,60.31728721554471L269.39224568555306,55.775989236751876z" style="fill:rgb(0,0,0)"></path><path d="M291.7796581946166,28.12792086698764L291.7796581946166,71.20895470798206L260.71740270146677,43.182126013201454zM260.71740270146677,86.26315985419586L291.7796581946166,71.20895470798206L339.3038033001413,81.04853342022754zM339.3038033001413,37.96749957923312L339.3038033001413,81.04853342022754L291.7796581946166,28.12792086698764z" style="fill:rgb(238,238,238); fill-opacity: 0.13"></path><path d="M339.3038033001412,37.96749957923313L339.3038033001412,81.04853342022754M339.3038033001412,81.04853342022754L308.2415478069914,96.10273856644136" style="fill:none;stroke:rgb(0,0,0);stroke-width:1;stroke-linecap:round"></path><path d="M291.7796581946166,71.20895470798206L260.71740270146677,86.26315985419586L260.71740270146677,43.182126013201454z" style="fill:rgb(238,238,238); fill-opacity: 0.13"></path><path d="M339.3038033001412,37.96749957923313L308.2415478069914,53.021704725446945M260.71740270146677,43.18212601320146L260.71740270146677,86.26315985419588M260.71740270146677,86.26315985419588L308.2415478069914,96.10273856644136" style="fill:none;stroke:rgb(0,0,0);stroke-width:1;stroke-linecap:round"></path><path d="M308.2415478069914,53.02170472544694L339.3038033001413,37.96749957923312L291.7796581946166,28.12792086698764zM308.2415478069914,96.10273856644133L339.3038033001413,81.04853342022754L339.3038033001413,37.96749957923312zM308.2415478069914,96.10273856644133L260.71740270146677,86.26315985419586L339.3038033001413,81.04853342022754zM260.71740270146677,43.182126013201454L308.2415478069914,53.02170472544694L291.7796581946166,28.12792086698764z" style="fill:rgb(238,238,238); fill-opacity: 0.13"></path><path d="M260.71740270146677,43.18212601320146L308.2415478069914,53.021704725446945" style="fill:none;stroke:rgb(0,0,0);stroke-width:1;stroke-linecap:round"></path><path d="M260.71740270146677,43.182126013201454L260.71740270146677,86.26315985419586L308.2415478069914,53.02170472544694zM308.2415478069914,53.02170472544694L308.2415478069914,96.10273856644133L339.3038033001413,37.96749957923312zM260.71740270146677,86.26315985419586L308.2415478069914,96.10273856644133L308.2415478069914,53.02170472544694z" style="fill:rgb(238,238,238); fill-opacity: 0.13"></path><path d="M308.2415478069914,53.021704725446945L308.2415478069914,96.10273856644136" style="fill:none;stroke:rgb(0,0,0);stroke-width:1;stroke-linecap:round"></path></svg>